<?xml version="1.0" encoding="UTF-8"?>
<svg width="344px" height="328px" viewBox="0 0 344 328" version="1.1" xmlns="http://www.w3.org/2000/svg" xmlns:xlink="http://www.w3.org/1999/xlink">
   
    <defs>
        <path d="M35.1232,9.14714286 L35.1232,125.047143 C35.1232,130.014286 30.9792,134.031429 25.8552,134.031429 L13.3616,134.031429 C9.4976,134.031429 6.0424,136.360286 4.6816,139.867143 C2.4136,145.740857 6.8992,152 13.3616,152 L45.7576,152 C51.3576,152 56,147.999143 56,143.173143 L56,9.14714286 C56,3.97371429 51.3576,0 45.7576,0 C39.7656,0 35.1232,3.97371429 35.1232,9.14714286 Z" id="path-1"></path>
        <path d="M84.183,2.882 L6.1435,75.295 C2.6345,78.5455 2.123,83.908 4.939,87.769 C8.2665,92.323 14.8225,92.961 18.964,89.1275 L84.8045,28.1765 C88.4345,24.816 94.0445,24.827 97.658,28.215 L247.049,168.1405 C248.6715,169.653 251.031,170.5055 254.111,170.5055 C256.828,170.5055 259.1875,169.653 261.1785,168.1405 C264.803,164.769 265.078,158.6695 261.1785,155.012 L185.5535,84.5405 C183.645,82.7585 182.556,80.256 182.556,77.6435 L182.556,31.7845 C182.556,26.587 178.024,22.5665 172.4085,22.5665 C167.156,22.5665 162.8055,26.587 162.8055,31.7845 L162.8055,63.4205 L97.9495,2.882 C95.964,1.012 93.6045,0.011 91.245,0.011 C88.528,0.011 86.174,1.0505 84.183,2.882 Z" id="path-3"></path>
        <path d="M32.016,6.15069767 C26.0834286,12.2344186 24.1666667,14.1990698 21.5097143,16.9227907 C7.22514286,31.7023256 0.0552380952,51.092093 0,70.4986047 L0,70.9451163 C0.0552380952,90.3516279 7.22514286,109.741395 21.5041905,124.515349 L111.542286,217.702326 C140.282667,247.434419 186.80419,247.434419 215.550095,217.702326 L226.03981,206.852093 C233.988571,198.625116 233.988571,185.24093 226.03981,177.013953 L197.194476,147.175814 C189.24019,138.954419 176.303429,138.954419 168.349143,147.175814 L155.241143,160.738605 C149.22019,166.973023 139.415429,166.967442 133.394476,160.744186 L76.5655238,101.916279 C70.5335238,95.6651163 70.5335238,85.5572093 76.5655238,79.3116279 C78.6811429,77.1237209 84.7462857,70.855814 89.6790476,65.7432558 C97.5946667,57.5553488 97.7051429,44.215814 89.6735238,35.9051163 L60.8392381,6.16744186 C56.8620952,2.05395349 51.6310476,0 46.4110476,0 C41.1910476,0 35.9820952,2.04837209 32.016,6.15069767 Z M36.8272381,21.0195349 L41.6108571,16.1134884 C44.2567619,13.3730233 48.5708571,13.3730233 51.2333333,16.1246512 L80.067619,45.8567442 C82.7190476,48.6083721 82.7190476,53.0511628 80.067619,55.8027907 L75.2619048,60.775814 L36.8272381,21.0195349 Z M121.153714,207.756279 L31.115619,114.569302 C8.93752381,91.6186047 7.7167619,55.5851163 27.3704762,31.1330233 L65.6891429,70.772093 C55.6247619,82.5711628 56.0390476,100.565581 66.9540952,111.856744 L123.777524,170.684651 C134.676,181.964651 152.070476,182.427907 163.499238,171.990698 L201.817905,211.635349 C190.704,221.207442 177.104381,226.024186 163.493714,226.029767 C148.236952,226.029767 132.963619,219.968372 121.153714,207.756279 Z M173.154857,162.094884 L177.966095,157.12186 C180.612,154.381395 184.931619,154.381395 187.577524,157.12186 L216.422857,186.96 C219.074286,189.706047 219.074286,194.165581 216.422857,196.906047 L211.617143,201.873488 L173.154857,162.094884 Z" id="path-5"></path>
    </defs>
    <g id="Artboard-3" stroke="none" stroke-width="1" fill="none" fill-rule="evenodd">
        <g id="Group-3" transform="translate(248.000000, 152.000000)">
            <mask id="mask-2" fill="white">
                <use xlink:href="#path-1"></use>
            </mask>
            <g id="Clip-2"></g>
            <polygon id="Fill-1" fill="#000" mask="url(#mask-2)" points="-23.912 179.142857 84 179.142857 84 -27.1428571 -23.912 -27.1428571"></polygon>
        </g>
        <g id="Group-6" transform="translate(80.000000, 0.000000)">
            <mask id="mask-4" fill="white">
                <use xlink:href="#path-3"></use>
            </mask>
            <g id="Clip-5"></g>
            <polygon id="Fill-4" fill="#000" mask="url(#mask-4)" points="-24.376 198.0055 291.5 198.0055 291.5 -27.489 -24.376 -27.489"></polygon>
        </g>
        <g id="Group-9" transform="translate(0.000000, 88.000000)">
            <mask id="mask-6" fill="white">
                <use xlink:href="#path-5"></use>
            </mask>
            <g id="Clip-8"></g>
            <polygon id="Fill-7" fill="#000" mask="url(#mask-6)" points="-27.6190476 267.906977 259.619048 267.906977 259.619048 -27.9069767 -27.6190476 -27.9069767"></polygon>
        </g>
    </g>
</svg>