<svg xmlns="http://www.w3.org/2000/svg" xmlns:xlink="http://www.w3.org/1999/xlink" id="Слой_1" x="0px" y="0px" viewBox="0 0 765.4 765.4" style="enable-background:new 0 0 765.4 765.4;" xml:space="preserve">
<g>
	<path d="M372.4,742.6c-2.9-0.7-5.8-1.4-8.7-2c-41-8.6-70.8-45.2-70.8-87.2c0-7.8,0-15.6,0-23.9c-3.5-0.5-7-0.9-10.3-1.5   c-20.6-4-36.5-15-47.1-33.1c-11.9-20.2-16.7-42.6-19.4-65.6c-0.9-8.1-2.3-16.2-3.3-24.2c-1.4-10.7-6.4-19.5-14.5-26.6   c-8.1-7.1-16.8-13.8-24.3-21.5c-10.4-10.5-20.8-21.2-29.6-33c-14.6-19.3-20.3-42.1-19.2-65.9c1-21.6,3.2-43.2,6.6-64.5   c6.4-41,36.7-71,77.6-79.1c29.4-5.8,55,2.2,78.2,20c1.5,1.2,3.1,2.4,5.7,4.3c0-2.9,0-4.6,0-6.4C293,177.2,293,122,292.9,66.9   c0-5.7-0.1-11.4,0.6-17c1.6-14.7,12.7-24.9,26.6-24.9c13.7,0.1,24.7,10.1,26.3,24.6c0.9,8.1,0.7,16.3,0.7,24.5   c0,2.7,0.8,4.3,3.5,5.2c21.2,7.5,42.4,7.5,63.7,0c2.6-0.9,3.5-2.4,3.5-5.1c0.1-8.5-0.1-17,0.9-25.4c1.1-10.2,6.7-17.7,16.3-21.7   c14.2-5.9,30.5,1.7,34.9,16.5c1.4,4.7,1.9,9.8,1.9,14.8c0.1,57.8,0,115.6,0,173.5c0,1.9,0,3.8,0,7c2.4-1.9,3.8-2.9,5.2-4   c54.6-43.4,113.2-16.5,140.6,18.2c10.5,13.3,14.4,29.2,16.6,45.5c2.5,19.1,4.6,38.4,5.6,57.7c1.7,34-10.6,63-34.3,87.1   c-9.6,9.7-19.5,19.3-30.3,27.5c-16.5,12.4-23.9,28.7-25.3,48.8c-1.5,20.1-4.4,40.2-12.4,58.9c-3.9,8.9-8.5,17.8-14.3,25.6   c-10.6,14.3-25.6,21.9-43.2,24.6c-2.3,0.4-4.6,0.6-6.9,1c-0.1,0-0.3,0.2-1.1,0.7c0,3.3,0.2,7,0,10.8c-0.6,10.8-0.1,21.8-2.4,32.2   c-8,36.3-36.8,62.6-73.6,68.5c-1.1,0.2-2.2,0.6-3.3,1C385.7,742.6,379.1,742.6,372.4,742.6z M587.1,359.1   c-2.1-18.7-4.5-37.3-6.4-56.1c-1.7-17.3-12.4-27-27.1-33.4c-13-5.6-25.8-5-37.6,3.1c-5.6,3.8-10.9,8.2-16.1,12.6   c-9.7,8.4-19,17.3-28.6,25.7c-49.3,43.1-128.4,43-177.5,0.2c-7.7-6.7-15-13.7-22.7-20.3c-7-6.1-14.2-12.2-21.5-17.8   c-23.5-18.1-63.4,2.2-65.1,27.6c-1.2,17.8-4.1,35.4-5.8,53.1c-1.9,20.1,4.7,37.4,19,51.7c5.2,5.2,10.6,10.2,16,15.1   c8.6,7.9,17.6,15.3,26,23.4c12.6,12.3,21,27.2,24.3,44.5c2.2,11.1,3.8,22.3,5.2,33.6c1.8,14.6,4.3,29,10.7,42.4   c2.3,4.8,5.4,8.8,10.9,10.3c12.6,3.6,29.3-4.7,34.8-16.6c2.9-6.3,6.3-12.5,10.4-18.1c23.5-32.2,73.2-30.8,95,2.6   c3.1,4.7,5.4,9.9,8.1,14.9c6.3,11.8,16.2,17.7,29.5,18c7.2,0.1,12.7-2.9,15.7-9.5c2.4-5.3,5.1-10.6,6.2-16.3   c2.9-14.8,5.4-29.8,7.2-44.8c3.5-29.4,16.2-53.6,39.4-72.1c5.3-4.3,10.6-8.7,15.5-13.4c6.7-6.4,13.5-12.9,19.7-19.9   C582.3,388.2,586.6,374.5,587.1,359.1z M346.9,635.8c0,0,0.1,0,0.1,0c0,5.5,0,11,0,16.5c0.2,19,16.2,35.2,35,35.2   c17.8,0,33.5-12.5,35.3-34.4c1-12.1,0.4-24.3,0.3-36.4c0-1.6-0.6-3.9-1.7-4.8c-10.8-8.2-18.9-18.6-25.8-30.2   c-3.6-6.1-10.3-6.4-15-1.1c-1.1,1.2-2.1,2.6-2.9,4.1c-5.4,10.4-13.2,18.7-22.1,26.1c-1.7,1.4-3,4.3-3.1,6.6   C346.6,623.5,346.9,629.7,346.9,635.8z M347.7,134.5c-0.3,0.8-0.5,1.2-0.5,1.7c0,14.3-0.1,28.6,0.1,43c0,1.4,1.9,3.5,3.4,4   c21.2,7.7,42.4,7.6,63.6,0.1c2.6-0.9,3.5-2.4,3.4-5.2c-0.1-7.7,0-15.3,0-23c0-6.8,0-13.6,0-20.8   C393.9,139.8,370.8,139.7,347.7,134.5z M347.5,238.4c-0.2,1.2-0.4,1.8-0.4,2.4c-0.1,13-0.2,26,0.1,39c0,1.5,2.1,3.7,3.7,4.3   c21,7.6,42.1,7.5,63.1,0.2c2.7-0.9,4-2.3,3.9-5.4c-0.2-11.8,0-23.7-0.1-35.5c0-1.6-0.3-3.1-0.5-5   C393.8,243.7,370.9,243.8,347.5,238.4z"/>
</g>
</svg>