<?xml version="1.0" encoding="UTF-8"?>
<svg width="47px" height="56px" viewBox="0 0 47 56" version="1.1" xmlns="http://www.w3.org/2000/svg" xmlns:xlink="http://www.w3.org/1999/xlink">

    <defs></defs>
    <g  stroke="none" stroke-width="1" fill="none" fill-rule="evenodd">
        <g  transform="translate(-1122.000000, -1669.000000)" fill-rule="nonzero">
            <g  transform="translate(240.000000, 397.000000)">
                <g transform="translate(746.000000, 1211.000000)">
                    <g  transform="translate(135.000000, 61.000000)">
                        <g  transform="translate(7.636364, 2.545455)" fill="#000">
                            <path d="M22.2727273,0.254545455 C21.7636364,0.254545455 21.1272727,0.509090909 20.7454545,0.890909091 L1.14545455,20.4909091 C0.254545455,21.3818182 0.254545455,22.6545455 1.14545455,23.5454545 L6.23636364,28.6363636 C6.61818182,29.0181818 7.25454545,29.2727273 7.76363636,29.2727273 C8.27272727,29.2727273 8.90909091,29.0181818 9.29090909,28.6363636 L28.8909091,9.03636364 C29.7818182,8.14545455 29.7818182,6.87272727 28.8909091,5.98181818 L23.8,0.890909091 C23.4181818,0.509090909 22.9090909,0.254545455 22.2727273,0.254545455 Z" id="Shape"></path>
                            <path d="M8.78181818,53.3272727 L29.1454545,53.3272727 C30.4181818,53.3272727 31.1818182,51.9272727 30.5454545,50.9090909 L24.5636364,41.6181818 C24.3090909,41.1090909 23.8,40.8545455 23.1636364,40.8545455 L14.6363636,40.8545455 C14.1272727,40.8545455 13.6181818,41.1090909 13.2363636,41.6181818 L7.50909091,50.9090909 C6.74545455,51.9272727 7.50909091,53.3272727 8.78181818,53.3272727 Z" id="Shape"></path>
                        </g>
                        <g  fill="#000">
                            <g transform="translate(0.000000, 12.727273)" >
                                <path d="M37.8,0.890909091 L35.7636364,2.92727273 C40.9818182,6.10909091 44.5454545,11.8363636 44.5454545,18.3272727 C44.5454545,24.6909091 41.2363636,30.2909091 36.2727273,33.4727273 L37.8,35.8909091 C43.5272727,32.2 47.4727273,25.7090909 47.4727273,18.4545455 C47.3454545,11.0727273 43.5272727,4.58181818 37.8,0.890909091 Z"></path>
                                <path d="M11.2,27.3636364 L18.0727273,27.3636364 C18.8363636,27.3636364 19.4727273,26.7272727 19.4727273,25.9636364 C19.4727273,25.2 18.8363636,24.5636364 18.0727273,24.5636364 L2.41818182,24.5636364 C1.65454545,24.5636364 1.01818182,25.2 1.01818182,25.9636364 C1.01818182,26.7272727 1.65454545,27.3636364 2.41818182,27.3636364 L8.01818182,27.3636364 C9.67272727,30.8 12.3454545,33.7272727 15.5272727,35.7636364 L17.0545455,33.3454545 C14.6363636,31.9454545 12.6,29.9090909 11.2,27.3636364 Z"></path>
                            </g>
                            <path d="M36.6545455,5.34545455 L39.5818182,2.41818182 C40.0909091,1.90909091 40.0909091,1.01818182 39.5818182,0.509090909 C38.9454545,5.55111512e-17 38.1818182,5.55111512e-17 37.6727273,0.509090909 L34.7454545,3.43636364 L36.6545455,5.34545455 Z" id="Shape"></path>
                        </g>
                    </g>
                </g>
            </g>
        </g>
    </g>
</svg>