<?xml version="1.0" encoding="UTF-8"?>
<svg width="44px" height="56px" viewBox="0 0 44 56" version="1.1" xmlns="http://www.w3.org/2000/svg" xmlns:xlink="http://www.w3.org/1999/xlink">
  
    <defs></defs>
    <g  stroke="none" stroke-width="1" fill="none" fill-rule="evenodd">
        <g  transform="translate(-1123.000000, -1116.000000)" fill="#000" fill-rule="nonzero">
            <g  transform="translate(240.000000, 397.000000)">
                <g  transform="translate(746.000000, 658.000000)">
                    <g  transform="translate(137.000000, 61.000000)">
                        <g transform="translate(11.666667, 0.000000)">
                            <path d="M14.4666667,55.3 C13.7666667,55.3 13.1833333,54.7166667 13.1833333,54.0166667 L13.1833333,45.0333333 C13.1833333,42.5833333 14.35,40.25 16.3333333,38.7333333 C17.3833333,37.9166667 17.9666667,36.6333333 17.85,35.35 C17.7333333,33.4833333 16.1,31.9666667 14.1166667,31.9666667 C13.4166667,31.9666667 12.7166667,32.0833333 12.1333333,32.4333333 C11.2,33.0166667 10.0333333,33.0166667 9.1,32.4333333 C8.51666667,32.0833333 7.81666667,31.9666667 7.11666667,31.9666667 C5.13333333,31.9666667 3.61666667,33.4833333 3.38333333,35.35 C3.26666667,36.6333333 3.85,37.9166667 4.9,38.7333333 C6.76666667,40.1333333 7.93333333,42.4666667 7.93333333,44.9166667 L7.93333333,53.9 C7.93333333,54.6 7.35,55.1833333 6.65,55.1833333 C5.95,55.1833333 5.36666667,54.6 5.36666667,53.9 L5.36666667,44.9166667 C5.36666667,43.2833333 4.55,41.7666667 3.38333333,40.7166667 C1.63333333,39.3166667 0.7,37.2166667 0.816666667,35 C1.16666667,31.85 3.85,29.2833333 7.11666667,29.2833333 C8.28333333,29.2833333 9.45,29.5166667 10.5,30.1 C10.6166667,30.2166667 10.85,30.2166667 11.0833333,30.1 C12.1333333,29.5166667 13.3,29.2833333 14.4666667,29.2833333 C17.7333333,29.4 20.4166667,31.85 20.7666667,35.1166667 C21,37.3333333 20.0666667,39.4333333 18.2,40.8333333 C16.9166667,41.7666667 16.1,43.4 16.1,45.0333333 L16.1,54.0166667 C15.75,54.7166667 15.1666667,55.3 14.4666667,55.3 Z" id="Shape"></path>
                            <path d="M13.8833333,26.6 C12.7166667,26.6 11.6666667,26.3666667 10.7333333,25.7833333 C10.6166667,25.6666667 10.3833333,25.6666667 10.15,25.7833333 C9.1,26.3666667 7.93333333,26.6 6.76666667,26.6 C3.5,26.4833333 0.816666667,24.0333333 0.466666667,20.7666667 C0.233333333,18.55 1.16666667,16.45 3.03333333,15.05 C4.31666667,14.1166667 5.13333333,12.4833333 5.13333333,10.85 L5.13333333,1.98333333 C5.13333333,1.28333333 5.71666667,0.7 6.41666667,0.7 C7.11666667,0.7 7.7,1.28333333 7.7,1.98333333 L7.7,10.9666667 C7.7,13.4166667 6.53333333,15.75 4.55,17.2666667 C3.5,18.0833333 2.91666667,19.3666667 3.03333333,20.65 C3.15,22.5166667 4.78333333,24.0333333 6.76666667,24.0333333 C7.46666667,24.0333333 8.16666667,23.9166667 8.75,23.5666667 C9.68333333,22.9833333 10.85,22.9833333 11.7833333,23.5666667 C12.3666667,23.9166667 13.0666667,24.0333333 13.7666667,24.0333333 C15.75,24.0333333 17.2666667,22.5166667 17.5,20.65 C17.6166667,19.3666667 17.0333333,18.0833333 15.9833333,17.2666667 C14.1166667,15.8666667 12.95,13.5333333 12.95,11.0833333 L12.95,1.98333333 C12.95,1.28333333 13.5333333,0.7 14.2333333,0.7 C14.9333333,0.7 15.5166667,1.28333333 15.5166667,1.98333333 L15.5166667,10.9666667 C15.5166667,12.6 16.3333333,14.1166667 17.5,15.1666667 C19.25,16.5666667 20.1833333,18.6666667 20.0666667,20.8833333 C19.7166667,24.0333333 17.0333333,26.6 13.7666667,26.6 C14.1166667,26.6 14,26.6 13.8833333,26.6 Z" id="Shape"></path>
                        </g>
                        <g  transform="translate(0.000000, 18.666667)">
                            <g transform="translate(35.000000, 0.000000)" >
                                <path d="M7.35,10.6166667 L1.4,10.6166667 C0.7,10.6166667 0.116666667,10.0333333 0.116666667,9.33333333 C0.116666667,8.63333333 0.7,8.05 1.4,8.05 L7.35,8.05 C8.05,8.05 8.63333333,8.63333333 8.63333333,9.33333333 C8.63333333,10.0333333 8.05,10.6166667 7.35,10.6166667 Z"></path>
                                <g>
                                    <path d="M1.51666667,5.36666667 C1.05,5.36666667 0.466666667,5.01666667 0.35,4.55 C0.116666667,3.85 0.466666667,3.15 1.05,2.91666667 L5.48333333,1.16666667 C6.18333333,0.933333333 6.88333333,1.28333333 7.11666667,1.86666667 C7.35,2.56666667 7,3.26666667 6.41666667,3.5 L1.98333333,5.25 C1.86666667,5.36666667 1.63333333,5.36666667 1.51666667,5.36666667 Z"></path>
                                    <path d="M5.95,17.6166667 C5.83333333,17.6166667 5.6,17.6166667 5.48333333,17.5 L1.05,15.75 C0.35,15.5166667 8.65973959e-15,14.7 0.35,14.1166667 C0.583333333,13.4166667 1.4,13.0666667 1.98333333,13.4166667 L6.41666667,15.1666667 C7.11666667,15.4 7.46666667,16.2166667 7.11666667,16.8 C7,17.2666667 6.53333333,17.6166667 5.95,17.6166667 Z"></path>
                                </g>
                            </g>
                            <g >
                                <path d="M7.93333333,10.6166667 L1.98333333,10.6166667 C1.28333333,10.6166667 0.7,10.0333333 0.7,9.33333333 C0.7,8.63333333 1.28333333,8.05 1.98333333,8.05 L7.93333333,8.05 C8.63333333,8.05 9.21666667,8.63333333 9.21666667,9.33333333 C9.21666667,10.0333333 8.75,10.6166667 7.93333333,10.6166667 Z"></path>
                                <g transform="translate(1.166667, 0.000000)">
                                    <path d="M2.21666667,17.6166667 C1.75,17.6166667 1.16666667,17.2666667 1.05,16.8 C0.816666667,16.1 1.16666667,15.4 1.75,15.1666667 L6.18333333,13.4166667 C6.88333333,13.1833333 7.58333333,13.5333333 7.81666667,14.1166667 C8.05,14.8166667 7.7,15.5166667 7.11666667,15.75 L2.68333333,17.5 C2.56666667,17.6166667 2.33333333,17.6166667 2.21666667,17.6166667 Z"></path>
                                    <path d="M6.65,5.36666667 C6.53333333,5.36666667 6.3,5.36666667 6.18333333,5.25 L1.75,3.5 C1.05,3.26666667 0.7,2.45 1.05,1.86666667 C1.28333333,1.16666667 1.98333333,0.816666667 2.68333333,1.16666667 L7.11666667,2.91666667 C7.81666667,3.15 8.16666667,3.96666667 7.81666667,4.55 C7.7,5.01666667 7.11666667,5.36666667 6.65,5.36666667 Z"></path>
                                </g>
                            </g>
                        </g>
                    </g>
                </g>
            </g>
        </g>
    </g>
</svg>