<?xml version="1.0" encoding="utf-8"?>
<!-- Svg Vector Icons : http://www.onlinewebfonts.com/icon -->
<!DOCTYPE svg PUBLIC "-//W3C//DTD SVG 1.1//EN" "http://www.w3.org/Graphics/SVG/1.1/DTD/svg11.dtd">
<svg version="1.1" xmlns="http://www.w3.org/2000/svg" xmlns:xlink="http://www.w3.org/1999/xlink" x="0px" y="0px" viewBox="0 0 1000 1000" enable-background="new 0 0 1000 1000" xml:space="preserve">
<metadata> Svg Vector Icons : http://www.onlinewebfonts.com/icon </metadata>
<g><path d="M47.2,52c-1.7-3.1-0.6-7,2.5-8.7l46.7-25.5c3.1-1.7,7-0.6,8.7,2.6L124,54.6c70.9-21.2,149.4,9,186.2,76.5l-90.6,49.4c15,27.4,4.8,61.8-22.6,76.8c-27.5,14.9-61.9,4.8-76.9-22.5l-90.6,49.4c-36.9-67.5-20-149.8,36.3-197.9L47.2,52L47.2,52z"/><path d="M685.2,667.9H990v315H685.2V667.9z"/><path d="M650.3,825.4H404.2c-42.9,0-77.8-34.8-77.8-77.8c0-43,34.9-77.7,77.8-77.7h246.1V825.4z"/><path d="M119.6,888.5c0-17.4,14.1-31.5,31.5-31.5h499.2v126H119.6V888.5L119.6,888.5z"/><path d="M308.9,731.5c0,51.8-42.1,93.9-94,93.9c-51.9,0-94-42-94-93.9c0-51.8,42.1-93.8,94-93.8C266.8,637.7,308.9,679.7,308.9,731.5z"/><path d="M822.8,468.6l-52.9-150.6c-10.3-28.4-30-50.5-85.6-50.5H440.2c-55.6,0-75.3,22.2-85.5,50.5l-52.9,150.6c-3.9,9.7-6,31.6,15.5,46.2l124.3,81.9c18.1,12,42.6,7,54.6-11.1c12-18.1,7-42.6-11.2-54.6l-98.7-65l27.8-76.6h38.4L430,451.6l74.9,49.4c16.8,11.1,28.3,28.1,32.4,47.8c4.1,19.8,0.2,39.9-10.9,56.8c-4.4,6.7-9.9,12.4-16,17.3h103.7c-6.1-4.9-11.5-10.6-16-17.3c-11.1-16.8-15-37-10.9-56.8c4.1-19.7,15.6-36.7,32.4-47.8l75-49.4L672,389.4h38.5l27.8,76.6l-98.7,65c-18.1,12-23.2,36.5-11.2,54.6c12,18.1,36.5,23.1,54.6,11.1l124.3-81.9C828.8,500.2,826.8,478.3,822.8,468.6L822.8,468.6z"/><path d="M586.6,120.2c-5.9,12.7-18.8,21.6-33.7,21.6c-15,0-27.9-8.9-33.8-21.6h-68.1c-1.1,6-1.7,12.1-1.7,18.4c0,57.4,46.6,103.9,104,103.9c57.5,0,104-46.5,104-103.9c0-6.3-0.7-12.4-1.7-18.4H586.6L586.6,120.2z"/><path d="M516.7,95.6c4.1-16.1,18.6-28.1,36.1-28.1c17.4,0,32.1,12,36,28.1h59c-16.4-35.9-52.6-61-94.7-61c-42.1,0-78.3,25-94.7,61H516.7L516.7,95.6z"/></g>
</svg>