<?xml version="1.0" encoding="iso-8859-1"?>
<svg version="1.1" id="Layer_1" xmlns="http://www.w3.org/2000/svg" xmlns:xlink="http://www.w3.org/1999/xlink" x="0px" y="0px"
	 viewBox="0 0 330.051 330.051" style="enable-background:new 0 0 330.051 330.051;" xml:space="preserve">
<g>
	<g>
		<path d="M222.648,56.579c1.116,0,2.017-0.901,2.017-2.017s-0.901-2.017-2.017-2.017c-40.745,0-75.167,50.586-75.167,110.464
			c0,1.116,0.901,2.017,2.017,2.017c1.116,0,2.017-0.901,2.017-2.017C151.511,105.316,184.09,56.579,222.648,56.579z"/>
		<path d="M227.584,258.26c-1.116,0-2.017,0.901-2.017,2.017c0,1.116,0.901,2.017,2.017,2.017c31.452,0,59.044-44.083,59.044-94.341
			c0-1.116-0.901-2.017-2.017-2.017s-2.017,0.901-2.017,2.017C282.604,216.061,256.891,258.26,227.584,258.26z"/>
		<path d="M222.648,72.696c1.116,0,2.017-0.901,2.017-2.017s-0.901-2.017-2.017-2.017c-31.452,0-59.044,44.083-59.044,94.346
			c0,1.116,0.901,2.017,2.017,2.017c1.116,0,2.017-0.901,2.017-2.017C167.634,114.9,193.341,72.696,222.648,72.696z"/>
		<path d="M269.604,165.025c0-45.189-24.156-80.241-44.943-80.241c-20.782,0-44.943,35.052-44.943,80.241
			c0,45.189,24.156,80.235,44.943,80.235C245.448,245.266,269.604,210.214,269.604,165.025z"/>
		<path d="M300.733,165.932c-1.116,0-2.017,0.901-2.017,2.017c0,57.692-32.573,106.429-71.137,106.429
			c-1.116,0-2.017,0.901-2.017,2.017s0.901,2.017,2.017,2.017c40.745,0,75.167-50.586,75.167-110.464
			C302.751,166.833,301.85,165.932,300.733,165.932z"/>
		<path d="M224.666,24.338H119.27c-58.199,0-105.385,62.976-105.39,140.667h-0.015c0,25.39-5.038,49.244-13.865,69.801l12.17,16.241
			l13.379-17.853l13.42,17.853l13.379-17.853l13.379,17.853l13.379-17.853l13.379,17.853l13.379-17.853l0.123,0.2
			c8.422-20.132,13.24-43.336,13.292-68.019c0.061,33.203,8.75,63.683,23.214,87.706c0.097,0.164,0.189,0.343,0.287,0.507
			c-0.845,2.417-1.772,4.797-2.739,7.132l-0.123-0.2l-13.379,17.853l-13.379-17.853l-13.379,17.853L86.4,260.518l-13.379,17.853
			l-13.419-17.853l-8.663,11.561c18.401,20.956,42.245,33.633,68.331,33.633h105.38c0,0,0.005,0,0.01,0
			c58.204,0,105.39-62.986,105.39-140.687C330.056,87.324,282.87,24.338,224.666,24.338z M224.666,294.397
			c-51.876,0-94.08-58.035-94.08-129.372s42.204-129.372,94.08-129.372s94.08,58.035,94.08,129.372
			C318.74,236.362,276.536,294.397,224.666,294.397z"/>
	</g>
</g>
<g>
</g>
<g>
</g>
<g>
</g>
<g>
</g>
<g>
</g>
<g>
</g>
<g>
</g>
<g>
</g>
<g>
</g>
<g>
</g>
<g>
</g>
<g>
</g>
<g>
</g>
<g>
</g>
<g>
</g>
</svg>
