<?xml version="1.0" encoding="utf-8"?>
<!-- Svg Vector Icons : http://www.onlinewebfonts.com/icon -->
<!DOCTYPE svg PUBLIC "-//W3C//DTD SVG 1.1//EN" "http://www.w3.org/Graphics/SVG/1.1/DTD/svg11.dtd">
<svg version="1.1" xmlns="http://www.w3.org/2000/svg" xmlns:xlink="http://www.w3.org/1999/xlink" x="0px" y="0px" viewBox="0 0 1000 1000" enable-background="new 0 0 1000 1000" xml:space="preserve">
<metadata> Svg Vector Icons : http://www.onlinewebfonts.com/icon </metadata>
<g><g transform="translate(0.000000,511.000000) scale(0.100000,-0.100000)"><path d="M347.7,4972.4C241,4924.4,149.5,4822.1,119,4713.1c-17.4-54.5-21.8-357.3-17.4-919.3l6.5-838.7l71.9-141.6c39.2-78.4,95.9-183,124.2-235.3c28.3-50.1,56.6-152.5,65.4-228.7c32.7-287.5,200.4-450.9,457.5-450.9h98V-992c0-3158.6-4.4-3043.2,124.2-3280.6c78.4-141.6,252.7-315.9,396.5-394.3c459.6-248.3,1034.7-108.9,1313.6,318.1c143.8,220,154.7,265.8,169.9,769c13.1,509.7,24,549,167.7,657.9l78.4,61l411.7,6.5l409.5,6.5v-224.4c0-124.2,10.9-259.2,21.8-305c28.3-102.4,169.9-241.8,278.8-274.5c63.2-19.6,686.2-26.1,2391.9-26.1c2585.7,0,2402.8-10.9,2550.9,159c104.6,117.6,119.8,237.5,111.1,777.7c-8.7,559.9,0,535.9-263.6,766.8c-2.2,2.2-509.8,10.9-1126.2,17.4l-1121.9,10.9l-6.5,244l-6.5,244l1378.9,6.6c1516.1,6.5,1435.5,0,1566.2,141.6c137.3,145.9,128.5-13.1,128.5,2396.2c0,2089.1-2.2,2200.2-41.4,2282.9c-47.9,104.6-117.6,172.1-224.4,217.8c-71.9,28.3-411.7,32.7-2966.9,32.7c-1734,0-2908.1-8.7-2938.6-19.6c-76.2-28.3-206.9-148.1-250.5-228.7c-34.9-61-37-244-43.6-2230.6c-4.4-1422.5,2.2-2191.4,17.4-2245.9c32.7-124.2,111.1-224.4,217.8-285.4l98-54.5l1368-6.5l1365.8-6.6v-248.3V-1957H5416.8h-1087l-95.8-50.1c-139.4-74.1-222.2-202.6-233.1-361.6l-8.7-128.5l-418.2-8.7c-372.5-6.5-427-13.1-522.8-56.6c-163.4-74.1-281-183-363.8-335.5l-74.1-137.2l-10.9-457.5c-10.9-416.1-17.4-468.3-61-566.4c-113.3-248.3-335.5-389.9-614.3-392.1c-281,0-481.4,132.9-607.8,403l-56.6,119.8v2908.1v2908.1l122,13.1c259.2,28.3,400.8,176.5,435.7,459.6c15.2,117.6,37,187.3,89.3,267.9c185.2,294.1,191.7,333.3,191.7,1261.3v766.8l-56.6,115.4c-37,74.1-89.3,135.1-145.9,172.1l-87.1,58.8l-688.4,4.4C491.5,5013.7,428.3,5009.4,347.7,4972.4z M1717.9,4658.7c30.5-21.8,41.4-71.9,50.1-250.5l13.1-222.2h-679.6H424v211.3c0,311.5-47.9,289.7,664.4,289.7C1537.1,4687,1687.4,4680.5,1717.9,4658.7z M1763.7,3488.9c-2.2-431.3-10.9-485.8-113.3-636.1c-89.3-130.7-159-328.9-159-455.3c0-56.6-15.3-100.2-43.6-128.5c-39.2-39.2-71.9-43.6-344.2-43.6c-368.1,0-383.4,8.7-403,193.9c-17.4,156.8-78.4,326.8-156.8,427C441.4,2983.5,424,3070.6,424,3467.1c0,198.2,6.5,370.3,15.3,376.9c8.7,8.7,309.3,13.1,668.7,10.9l655.7-6.5V3488.9z M9533.9,3255.8c37-32.7,39.2-128.5,39.2-2156.6c0-1422.5-6.5-2137-21.8-2165.3c-24-41.4-78.4-41.4-2871.1-41.4c-2187.1,0-2855.9,6.5-2875.5,26.2c-19.6,19.6-26.1,533.7-26.1,2178.4c0,2023.7,2.2,2152.2,39.2,2171.8c24,15.3,982.4,21.8,2855.9,24C9268.2,3292.8,9496.9,3290.7,9533.9,3255.8z M8965.4-2305.6c39.2-21.8,41.4-50.1,41.4-494.5c0-407.4-4.4-477.1-37-511.9c-32.7-37-132.9-39.2-2298.2-39.2c-2232.8,0-2261.2,0-2304.7,43.6c-41.4,41.4-43.6,71.9-43.6,485.8c0,363.8,6.5,448.7,34.9,490.1l32.7,47.9h2265.5C8176.8-2283.8,8937-2290.3,8965.4-2305.6z"/><path d="M3996.5,1092.7V-889.6h2679.4h2679.4l-4.4,1977.9l-6.5,1975.8l-2672.9,6.5l-2675,4.4V1092.7z M9006.8,1081.8V-562.9H6665H4323.3v1644.7v1644.7H6665h2341.7V1081.8z"/><path d="M5510.5,1637.3l-784.2-784.2l119.8-122c289.7-296.3,751.5-564.2,1165.4-675.3c176.4-47.9,281-61,555.5-67.5c372.5-13.1,542.4,6.5,838.7,91.5c383.4,111.1,738.5,315.8,1045.6,603.4L8619,837.8l-790.8,790.8l-790.8,790.7l-95.8-87.1c-180.8-159-361.6-156.8-538.1,4.4c-50.1,45.7-95.9,85-100.2,85C6299,2421.5,5941.8,2068.6,5510.5,1637.3z M6477.7,1907.4c141.6-43.6,350.7-32.7,457.5,24l74.1,37l564.2-564.2L8137.6,840L8033,765.9c-270.1-198.2-511.9-313.7-825.6-394.3c-165.6-43.6-246.2-52.3-542.4-50.1c-387.7,0-555.5,30.5-875.7,163.4c-156.8,67.5-531.5,298.4-564.2,350.7c-17.4,26.1,1080.5,1132.8,1113.2,1119.7C6349.1,1948.8,6412.3,1929.2,6477.7,1907.4z"/><path d="M7407.8-2547.4c-74.1-58.8-80.6-187.3-10.9-250.5c41.4-39.2,91.5-41.4,642.6-47.9c505.4-4.4,605.6-2.2,660.1,28.3c117.6,58.8,117.6,224.4,2.2,283.2c-52.3,26.1-167.7,32.7-649.2,32.7C7492.8-2501.6,7464.5-2503.8,7407.8-2547.4z"/></g></g>
</svg>